<svg xmlns="http://www.w3.org/2000/svg" viewBox="0 0 432 360"><defs><style>.cls-1{fill:#6fccdd;}.cls-2{fill:#231f20;}</style></defs><title>bone</title><g id="Layer_7" data-name="Layer 7"><ellipse class="cls-1" cx="216" cy="182.4" rx="216" ry="160.97"/><path class="cls-2" d="M327.49,186.39c-4.4-4.86-6.17-19.12-1.23-25.29s7.4-17.89,7.4-21.59c0-12.43-10.49-41.33-45.65-37.63-20.27,2.13-33,14.31-40.07,24.25-6,8.42-12.66,14.86-23,14.86l-20.81,1H186.36a32,32,0,0,1-26.07-13.38c-7.11-9.93-19.8-22.11-40.07-24.25-35.16-3.7-45.65,25.8-45.65,37.63,0,3.71,2.3,15.57,7.4,21.59,9.58,11.31,2.33,19.79-1.23,25.3-8.8,13.58-8.53,34.21,11.21,45.93s39.58,13.48,65.9-11.39c2.55-2.41,5.61-7.49,12.49-9.19,12-3,26.55-5,33.78-5,0,0,18.93-.06,31.9,2.93,8.38,1.92,11.75,6.31,14.36,8.79,26.32,24.87,50,21,69.71,9.25S341,201.23,327.49,186.39ZM183,201.87c-3.24,0-6.36-.07-9.27-.2a24.37,24.37,0,0,0-17,6.26c-.45.4-.94.79-1.45,1.18-5.29,4-14.22,11.57-16,9.19s4.21-13.81,9.51-17.81a23.76,23.76,0,0,1,5.08-3c4.18-3.4,14.14-3.4,29.17-3.4,16.24,0,29.41,1.73,29.41,3.86S199.25,201.87,183,201.87Zm112-82.43h-.08a15.33,15.33,0,0,0-11,4.51,37.45,37.45,0,0,1-6.23,5c-7.31,4.71-14.64,6.35-16.38,3.65s2.76-8.71,10.07-13.42A32.32,32.32,0,0,1,282,114.5c2.4-1.11,7.27-1.88,12.95-1.88,8.05,0,14.58,1.53,14.58,3.41S303,119.44,295,119.44Z"/></g></svg>