<svg xmlns="http://www.w3.org/2000/svg" viewBox="0 0 432 360"><defs><style>.cls-1{fill:#6fccdd;}.cls-2{fill:#231f20;}</style></defs><title>cat_paw</title><g id="Layer_9" data-name="Layer 9"><ellipse class="cls-1" cx="216.03" cy="183" rx="215.97" ry="160.95"/><path class="cls-2" d="M319.08,231.28c-5.36-11.32-13.75-19.6-22.6-23.73-12.52-7.33-32-1.41-45.51,14.62-14.55,17.32-16.47,39.68-4.27,49.93,8.16,6.86,20.54,6.44,32.22.32,9.8,9.13,21.84,12.85,31.59,8.23C324.92,273.83,328.75,251.73,319.08,231.28Z"/><ellipse class="cls-2" cx="237.29" cy="199.05" rx="11.75" ry="15.6" transform="translate(-21.13 28.33) rotate(-6.54)"/><ellipse class="cls-2" cx="275.3" cy="178.1" rx="16.95" ry="12.77" transform="translate(61.36 426.58) rotate(-82.17)"/><ellipse class="cls-2" cx="313.67" cy="183.38" rx="16.95" ry="12.77" transform="translate(89.28 469.15) rotate(-82.17)"/><ellipse class="cls-2" cx="344.81" cy="212.5" rx="15.6" ry="11.75" transform="translate(-22.39 383.43) rotate(-56.61)"/><path class="cls-2" d="M182.36,165.82c-7.73-9.86-17.74-16.08-27.29-18.14-13.82-4.39-31.54,5.69-41.14,24.31-10.37,20.11-7.3,42.33,6.87,49.64,9.47,4.89,21.45,1.74,31.48-6.81,11.58,6.74,24.14,7.7,32.64,1C197.46,206,196.32,183.62,182.36,165.82Z"/><ellipse class="cls-2" cx="95.47" cy="152.47" rx="11.75" ry="15.6" transform="translate(-45.05 40.15) rotate(-19.31)"/><ellipse class="cls-2" cx="127.91" cy="123.63" rx="12.77" ry="16.95" transform="translate(-10.17 11.48) rotate(-4.94)"/><ellipse class="cls-2" cx="166.5" cy="120.3" rx="12.77" ry="16.95" transform="translate(-9.74 14.79) rotate(-4.94)"/><ellipse class="cls-2" cx="203.3" cy="141.81" rx="15.6" ry="11.75" transform="translate(-1.03 282.14) rotate(-69.38)"/></g></svg>