<svg xmlns="http://www.w3.org/2000/svg" viewBox="0 0 432 360"><defs><style>.cls-1{fill:#6fccdd;}.cls-2{fill:#231f20;}.cls-3,.cls-4{fill:none;stroke:#231f20;stroke-miterlimit:10;stroke-width:9px;}.cls-3{stroke-linecap:round;}</style></defs><title>cat_face</title><g id="Layer_5" data-name="Layer 5"><ellipse class="cls-1" cx="216.25" cy="183.26" rx="216.25" ry="161.16"/><path class="cls-2" d="M182,119.36c-12,0-21.77,12-21.77,26.9s9.75,26.9,21.77,26.9,21.78-12,21.78-26.9S194,119.36,182,119.36Zm3.65,26.9A10.38,10.38,0,1,1,196,135.88,10.38,10.38,0,0,1,185.62,146.26Z"/><line class="cls-3" x1="185.1" y1="209.36" x2="120.96" y2="181.83"/><line class="cls-3" x1="80.07" y1="203.52" x2="185.1" y2="224.94"/><line class="cls-3" x1="181.98" y1="241.5" x2="122.91" y2="241.5"/><line class="cls-3" x1="267.02" y1="211.93" x2="331.15" y2="184.39"/><line class="cls-3" x1="267.02" y1="227.5" x2="372.04" y2="206.08"/><line class="cls-3" x1="270.14" y1="244.06" x2="329.2" y2="244.06"/><path class="cls-2" d="M242.62,194.87c-9.22-6.66-20.65,3.59-20.65,3.59s-16.4-12.52-21.88,0C192.88,214.94,217,226.73,217,226.73l12.3-.09C241.6,217.93,251.85,201.53,242.62,194.87Z"/><polygon class="cls-2" points="227.78 243.31 228.84 226.73 217 226.73 217.64 243.48 227.78 243.31"/><path class="cls-3" d="M255.53,249.61s-3,12.76-16.24,9.74-16.37-16.24-16.37-16.24"/><path class="cls-3" d="M189.85,249.61s3,12.76,16.25,9.74,16.36-16.24,16.36-16.24"/><path class="cls-2" d="M259,119.36c-12,0-21.77,12-21.77,26.9s9.75,26.9,21.77,26.9,21.78-12,21.78-26.9S271,119.36,259,119.36Zm3.64,26.9A10.38,10.38,0,1,1,273,135.88,10.37,10.37,0,0,1,262.64,146.26Z"/><ellipse class="cls-4" cx="176.57" cy="139.33" rx="40.55" ry="44.5" transform="translate(-46.01 106.95) rotate(-30)"/><ellipse class="cls-2" cx="222.46" cy="261.82" rx="11.09" ry="13.75"/></g></svg>