<svg xmlns="http://www.w3.org/2000/svg" viewBox="0 0 432 360"><defs><style>.cls-1{fill:#6fccdd;}.cls-2{fill:#020202;}</style></defs><title>chubby_cat</title><g id="Layer_3" data-name="Layer 3"><ellipse class="cls-1" cx="215.98" cy="182.14" rx="213.99" ry="159.48"/><ellipse class="cls-2" cx="83.45" cy="149" rx="1.02" ry="9.85" transform="translate(-82.51 189.28) rotate(-74.39)"/><ellipse class="cls-2" cx="81.98" cy="154.23" rx="1.01" ry="9.94" transform="translate(-78.01 224.31) rotate(-85.66)"/><ellipse class="cls-2" cx="84.88" cy="143.88" rx="1.01" ry="9.96" transform="translate(-82 151.41) rotate(-62.05)"/><path d="M140.08,130.79a2.84,2.84,0,1,0,2.66,2.8A2.73,2.73,0,0,0,140.08,130.79Z"/><path d="M257.21,91.57c.16.42,80.12,51.67,59.15,62.81C298,134.88,266.22,122,230,122a139.88,139.88,0,0,0-49.68,8.82,34.53,34.53,0,0,0-2.47-4.16l-.16-16.91a3.25,3.25,0,0,0-4.52-2.95l-14.83,6.33-4.66-7.88a3.24,3.24,0,0,0-5.38-.3l-12.19,16.24c-10.76,4.63-20.12,10.48-22.75,11.4-8,2.81-18.1,9.55-18.63,20.73-.43,9,5.36,24.22,11.52,32,4.68,5.92,7.88,6.28,11.53,9.24,2.86,2.33,11.51,13.14,13.09,17.12a59.62,59.62,0,0,0,8,14c-8.66,17.45-15.57,22-5.16,29.34,13.19,9.31,14.88-2.43,20.39-14.34A100,100,0,0,0,169,249.87c.56,16.71.24,22.6,9.91,23,13.42.51,12.53-3.18,10.49-14.88A143.26,143.26,0,0,0,230,263.72,148.89,148.89,0,0,0,252.33,262c.16,10.45,1,15.67,10.33,15.67,14.13,0,12.25-6.65,10.32-20.79l2.83-.58c8.2,12.72,12.56,23.13,20.37,18.67,11.13-6.36,6-13.81-1.48-27.08,23.26-13,38.13-32.84,38.13-55.08a49.83,49.83,0,0,0-1.55-12.21C370.58,128.44,248.68,68.77,257.21,91.57ZM105.15,155.51c-3.49,0-6.32-4-6.32-7.07s2.83-5.57,6.32-5.57,6.32,2.49,6.32,5.57S108.64,155.51,105.15,155.51Zm16.54,8.16c-5.21-2-9.32-4.11-9.16-4.65s4.51.65,9.72,2.67,9.32,4.11,9.16,4.65S126.9,165.7,121.69,163.67Zm1.06-5.42c-5.45-1-9.8-2.2-9.7-2.77s4.61-.24,10.06.72,9.81,2.2,9.71,2.77S128.21,159.21,122.75,158.25Zm1.06-5.32c-5.6.22-10.11-.06-10.07-.63s4.6-1.21,10.2-1.43,10.11.06,10.07.62S129.41,152.7,123.81,152.93Zm18.62-1.52c-4.7.05-8.58-4.89-8.66-11.06s3.67-11.21,8.37-11.27,8.58,4.89,8.66,11S147.13,151.35,142.43,151.41Zm81.44,105.48c-28,0-59.6-18.42-59.6-27.3s25.14-8.65,43.52-7.19c27.9,2.22,53.52,12.36,53.52,21.25S251.86,256.89,223.87,256.89Z"/></g></svg>