<svg xmlns="http://www.w3.org/2000/svg" viewBox="0 0 432 360"><defs><style>.cls-1{fill:#6fccdd;}</style></defs><title>chubby_face</title><g id="Layer_4" data-name="Layer 4"><ellipse class="cls-1" cx="217.76" cy="184.76" rx="214.24" ry="159.66"/><path d="M143.36,133.54a3.56,3.56,0,1,0,3.55,3.55A3.55,3.55,0,0,0,143.36,133.54Z"/><path d="M320.73,112.58c-6.3-2.2,11.64,33-2,41.51-18.34-19.53-50.2-32.47-86.46-32.47a140.16,140.16,0,0,0-49.73,8.83,30.89,30.89,0,0,0-12.17-13.21c-16.12-9.31-49.56,15.43-54.87,15-8.45-.69-23.16,7.92-23.7,19.11-.43,9,2.87,24,9,31.8,4.69,5.93,8.88,8.14,12.53,11.1,2.87,2.33,18.08,13.22,19.66,17.2a60,60,0,0,0,8,14c-6.63,14.68-8.74,26.68-4.49,29.13,3.76,2.17,11.5-3.69,19.74-14.12a100.31,100.31,0,0,0,14.87,9.23c1.56,16.33,5.77,28.05,10.74,28.05,4.09,0,7.68-8,9.68-20a143.23,143.23,0,0,0,40.69,5.77,149.29,149.29,0,0,0,22.35-1.69c1.93,13.12,5.69,22,10,22,4.87,0,9-11.31,10.65-27.17l2.83-.58c7,12.53,14.28,20.23,18.51,18.54s4.2-12.7.41-27c23.27-13,38.16-32.87,38.16-55.14a50.05,50.05,0,0,0-1.55-12.23C358.12,163.83,331.64,116.4,320.73,112.58ZM103.06,149.85a5.65,5.65,0,1,1,5.65-5.65A5.65,5.65,0,0,1,103.06,149.85Zm39.06,0c-4.12,0-7.45-4.12-7.45-9.2s3.33-9.21,7.45-9.21,7.45,4.12,7.45,9.21S146.23,149.85,142.12,149.85ZM171,167.3c-10.49,0-19-12.07-19-27s38-14.9,38,0S181.46,167.3,171,167.3Zm54.75,15.49c-5.06,0-14.25-4.27-14.25-8.37s4.14-3.52,9.19-3.52,12.94,1.83,12.94,5.93S230.77,182.79,225.72,182.79Zm46.44-6c-21.15,0-59.06-23.93-59.06-39.74s39.81,1.6,61,1.6,38.3,12.81,38.3,28.61S293.31,176.83,272.16,176.83Z"/></g></svg>