<svg xmlns="http://www.w3.org/2000/svg" viewBox="0 0 432 360"><defs><style>.cls-1{fill:#6fccdd;}.cls-2{fill:#231f20;}</style></defs><title>dog_paw</title><g id="Layer_10" data-name="Layer 10"><ellipse class="cls-1" cx="216" cy="181.74" rx="216" ry="160.97"/><path class="cls-2" d="M302.74,210.47s-10.85-35.67-44.64-12.35S221,245.53,246.81,241c19.47-3.41,27.18-1.79,31.8,8.6,7.14,16.06,29.85,19.95,30.13-6S302.74,210.47,302.74,210.47Z"/><ellipse class="cls-2" cx="242.55" cy="184.17" rx="11.9" ry="16.36" transform="translate(-58.19 136.19) rotate(-28.14)"/><ellipse class="cls-2" cx="275.17" cy="166.72" rx="11.9" ry="16.36" transform="translate(-7.25 12.6) rotate(-2.59)"/><ellipse class="cls-2" cx="310.66" cy="180.38" rx="16.36" ry="11.9" transform="translate(-31.57 289.57) rotate(-47.84)"/><ellipse class="cls-2" cx="328.89" cy="211.29" rx="16.36" ry="11.9" transform="translate(-62 215.45) rotate(-33.33)"/><path class="cls-2" d="M183.1,129.23s-26-26.74-45.34,9.47-11.32,59.16,9.6,43.29c15.75-11.94,23.35-14,32.21-6.92,13.7,11,35.67,4.08,24.06-19.09S183.1,129.23,183.1,129.23Z"/><ellipse class="cls-2" cx="117.55" cy="133.42" rx="11.9" ry="16.36" transform="translate(-59.02 154.41) rotate(-55.4)"/><ellipse class="cls-2" cx="138.55" cy="102.97" rx="11.9" ry="16.36" transform="translate(-32.87 82.6) rotate(-29.84)"/><ellipse class="cls-2" cx="176.36" cy="98.85" rx="16.36" ry="11.9" transform="translate(35.46 243.84) rotate(-75.09)"/><ellipse class="cls-2" cx="206.72" cy="117.98" rx="16.36" ry="11.9" transform="translate(2.41 240.09) rotate(-60.58)"/></g></svg>