<svg xmlns="http://www.w3.org/2000/svg" viewBox="0 0 432 360"><defs><style>.cls-1{fill:#6fccdd;}.cls-2{fill:none;stroke:#231f20;stroke-miterlimit:10;stroke-width:9px;}.cls-3{fill:#231f20;}</style></defs><title>dog_face</title><g id="Layer_6" data-name="Layer 6"><ellipse class="cls-1" cx="216" cy="184.33" rx="216" ry="160.97"/><path class="cls-2" d="M263.49,222.94a33,33,0,0,0-15.85-12.52c-7-2.62-11.41-9.72-11.41-17.23V162.52c0-7.63,4.45-14.79,11.57-17.52a32.73,32.73,0,1,0-34.86-53.69c-1.6,1.6-6.45,2-7.81.58C192.81,79,171.47,78.52,158.65,91a32.74,32.74,0,0,0,10.15,53.7c7.83,3.27,12.62,11.27,12.62,19.75v31.67a14.74,14.74,0,0,1-10.19,14,32.73,32.73,0,1,0,33.48,54.19c1.6-1.6,6.79-1.6,8.38,0a32.74,32.74,0,0,0,50.4-41.29Z"/><path class="cls-3" d="M205.09,266.16l-.84-18.9s-19.79-9.67-13.88-23.2c4.5-10.27,17.95,0,17.95,0s9.38-8.41,17-2.94-.84,18.92-10.93,26.06l.58,18.05Z"/><ellipse class="cls-3" cx="208.85" cy="271.78" rx="7.15" ry="12.4"/><path class="cls-3" d="M145.71,152.17c-9.87,0-17.87,9.88-17.87,22.07s8,22.07,17.87,22.07,17.87-9.88,17.87-22.07S155.58,152.17,145.71,152.17Zm3,22.07a8.52,8.52,0,1,1,8.51-8.51A8.51,8.51,0,0,1,148.7,174.24Z"/><path class="cls-3" d="M275.2,152.17c-9.87,0-17.87,9.88-17.87,22.07s8,22.07,17.87,22.07,17.87-9.88,17.87-22.07S285.07,152.17,275.2,152.17Zm4.21,22.07a8.52,8.52,0,1,1,8.51-8.51A8.51,8.51,0,0,1,279.41,174.24Z"/></g></svg>