<svg xmlns="http://www.w3.org/2000/svg" viewBox="0 0 432 360"><defs><style>.cls-1{fill:#6fccdd;}.cls-2{fill:none;}.cls-2,.cls-3{stroke:#231f20;stroke-miterlimit:10;stroke-width:9px;}.cls-3{fill:#231f20;}</style></defs><title>god_house</title><g id="Layer_8" data-name="Layer 8"><ellipse class="cls-1" cx="216" cy="182.7" rx="216" ry="160.97"/><path class="cls-2" d="M207.86,96.65l-77.7,62.88s-11.6,8.94-17.9,2.19c-6.6-7.07-1.21-13.95,4.18-17.39s89.16-69.8,89.16-69.8,11.29-9.29,23,0l86.22,69.8s12.83,7.5,5.88,15.2c-4.9,5.43-10.78,5.38-19.11,0s-75.44-61.89-75.44-61.89S217.41,89.14,207.86,96.65Z"/><path class="cls-3" d="M232.3,102.79c-14.45-19.64-29.87-1.74-29.87-1.74l-67.52,59.21,1.6,111.55h35.15c0-57.58,19.85-104.25,44.34-104.25s44.34,46.67,44.34,104.25h41.27V159.53S246.75,122.42,232.3,102.79Z"/></g></svg>