<svg id="Layer_1" data-name="Layer 1" xmlns="http://www.w3.org/2000/svg" viewBox="0 0 432 360"><defs><style>.cls-1{fill:#6fccdd;}.cls-2{fill:#231f20;}</style></defs><title>good_boy</title><ellipse class="cls-1" cx="216" cy="182.3" rx="216" ry="160.97"/><path class="cls-2" d="M138,173.79c-8.19.69-5.64-.3-6.47-10.43-25.28,30.6-64.1-3.05-50.45-39.5,7.84-28.71,53.2-27.66,57.46,0-2.88-1-7.38,2.25-7.79-1.87C112.48,90,77.23,119.35,87.64,150.1c7.64,29.24,47,21.86,43.45-7.29H109.78v-6.34H138Z"/><path class="cls-2" d="M215.92,138.33c.36,47.22-60,48.39-63.69,5.19C147.15,91,216.27,89,215.92,138.33Zm-56.33.15C159.9,179,208,177.32,208.3,140.7,210.46,97.61,158.29,100,159.59,138.48Z"/><path class="cls-2" d="M290.75,138.33c.35,47.22-60.05,48.39-63.69,5.19C222,91,291.09,89,290.75,138.33Zm-56.33.15c.31,40.51,48.39,38.84,48.71,2.22C285.29,97.61,233.12,100,234.42,138.48Z"/><path class="cls-2" d="M305.74,103.77c79.26-12.45,74.58,83.2,0,70Zm7.15,63.72c58.05,9.65,56-67.61,0-57.42Z"/><path class="cls-2" d="M97.42,190.93c28-3,89.72.83,52.81,33.26,17.84,5.18,15.91,27.5,2.8,33.8-12.08,6.69-45,2.49-55.61,3.59Zm35.52,27.65c29.22-9.49-7.53-18.25-18.64-14.81v14.81ZM114.3,248.82c44.67,4.65,39.62-22.91,0-17.48Z"/><path class="cls-2" d="M306.23,261.58c4.71-35.3-17.78-48.28-30.09-70.65,28.95-5.63,30.31,20.24,39.39,31.18,23.59-38.62,15-30.39,38.08-31.18-33.86,49.87-30.68,38.8-30.15,70.65Z"/><path class="cls-2" d="M236.51,225.58c-23.32-28-48,25.58-39.85,34.1,3.27,7,20.25-8.64,28.4-6.64C263.67,278.85,247.42,232.6,236.51,225.58Z"/><path class="cls-2" d="M195.26,230.43c-8.56,8.82-26.41-7.35-19.26-16.63C184.56,205,202.41,221.14,195.26,230.43Z"/><path class="cls-2" d="M207.46,211.67c-12.24,1.18-15.36-22.7-3.9-25.14C215.79,185.35,218.92,209.22,207.46,211.67Z"/><path class="cls-2" d="M230.37,207.94c-11.19-5.08-2-27.33,9.17-23.73C250.73,189.29,241.52,211.54,230.37,207.94Z"/><path class="cls-2" d="M251,227.85c-9.56-7.72,4.92-27,14.82-20.67C275.41,214.9,260.92,234.13,251,227.85Z"/></svg>